<svg width="72" height="86" viewBox="0 0 72 86" fill="none" xmlns="http://www.w3.org/2000/svg">
<circle cx="30" cy="31" r="30" fill="#494949"/>
<ellipse cx="30.0674" cy="78.8146" rx="25.0674" ry="3.81461" fill="#C4C4C4" fill-opacity="0.5"/>
<g filter="url(#filter0_d_4511_185873)">
<path d="M30.0555 12.4844C26.3966 12.4846 22.808 13.457 19.681 15.2957C16.554 17.1344 14.0087 19.7687 12.3225 22.9113C10.6364 26.054 9.87418 29.5844 10.119 33.1176C10.3638 36.6508 11.6063 40.0511 13.7109 42.9477L30.0726 68.8748L46.5537 42.7494C48.6079 39.4367 49.7815 35.6828 49.9695 31.8236C49.9695 26.7059 47.8736 21.7969 44.141 18.172C40.4083 14.5471 35.3433 12.5019 30.0555 12.4844ZM29.9018 40.5841C28.0439 40.5841 26.2278 40.0509 24.6831 39.0519C23.1383 38.053 21.9344 36.6332 21.2234 34.972C20.5124 33.3108 20.3264 31.4829 20.6889 29.7194C21.0513 27.9559 21.9459 26.336 23.2596 25.0646C24.5733 23.7932 26.2471 22.9274 28.0692 22.5766C29.8913 22.2258 31.78 22.4058 33.4965 23.0939C35.2129 23.782 36.6799 24.9472 37.7121 26.4423C38.7443 27.9373 39.2952 29.6949 39.2952 31.493C39.2952 33.9041 38.3055 36.2164 36.5439 37.9213C34.7823 39.6263 32.3931 40.5841 29.9018 40.5841Z" fill="#F8F7F5"/>
</g>
<circle cx="59" cy="13" r="11.5" fill="#FF2E00" stroke="white" stroke-width="3"/>
<path d="M58.0005 15.84V17.996H60.1985V15.84H58.0005ZM60.1285 10.688V8H58.0565V10.688L58.5885 15H59.5825L60.1285 10.688Z" fill="white"/>
<defs>
<filter id="filter0_d_4511_185873" x="2.07422" y="12.4844" width="55.8953" height="73.3906" filterUnits="userSpaceOnUse" color-interpolation-filters="sRGB">
<feFlood flood-opacity="0" result="BackgroundImageFix"/>
<feColorMatrix in="SourceAlpha" type="matrix" values="0 0 0 0 0 0 0 0 0 0 0 0 0 0 0 0 0 0 127 0" result="hardAlpha"/>
<feOffset dy="9"/>
<feGaussianBlur stdDeviation="4"/>
<feColorMatrix type="matrix" values="0 0 0 0 0 0 0 0 0 0 0 0 0 0 0 0 0 0 0.15 0"/>
<feBlend mode="normal" in2="BackgroundImageFix" result="effect1_dropShadow_4511_185873"/>
<feBlend mode="normal" in="SourceGraphic" in2="effect1_dropShadow_4511_185873" result="shape"/>
</filter>
</defs>
</svg>
